<mxfile host="app.diagrams.net" modified="2021-06-16T09:47:07.985Z" agent="5.0 (Macintosh; Intel Mac OS X 10_15_5) AppleWebKit/537.36 (KHTML, like Gecko) Chrome/91.0.4472.101 Safari/537.36" etag="NuT2rIkLhl7vSPPtr4h0" version="14.7.3" type="github">
  <diagram id="8jcFgTA3UGf6iCuX2bj9" name="Page-1">
    <mxGraphModel dx="1511" dy="843" grid="1" gridSize="10" guides="1" tooltips="1" connect="1" arrows="1" fold="1" page="1" pageScale="1" pageWidth="827" pageHeight="1169" math="0" shadow="0">
      <root>
        <mxCell id="0" />
        <mxCell id="1" parent="0" />
        <mxCell id="O3Rri53rWdAdvsoOidRE-15" value="" style="rounded=0;whiteSpace=wrap;html=1;labelBorderColor=none;labelBackgroundColor=none;fillColor=#b1ddf0;strokeColor=none;arcSize=12;" vertex="1" parent="1">
          <mxGeometry x="15" y="530" width="1110" height="505" as="geometry" />
        </mxCell>
        <mxCell id="O3Rri53rWdAdvsoOidRE-1" value="APP" style="rounded=0;whiteSpace=wrap;html=1;" vertex="1" parent="1">
          <mxGeometry x="70" y="630" width="1000" height="60" as="geometry" />
        </mxCell>
        <mxCell id="O3Rri53rWdAdvsoOidRE-2" value="基础扩展组件&lt;br&gt;Foundation、UIKit扩展" style="rounded=0;whiteSpace=wrap;html=1;fillColor=#f8cecc;strokeColor=#b85450;" vertex="1" parent="1">
          <mxGeometry x="70" y="920" width="890" height="60" as="geometry" />
        </mxCell>
        <mxCell id="O3Rri53rWdAdvsoOidRE-3" value="第三方库封装组件&lt;br&gt;如：&lt;br&gt;图片、动画、布局等等" style="rounded=0;whiteSpace=wrap;html=1;fillColor=#e1d5e7;strokeColor=#9673a6;" vertex="1" parent="1">
          <mxGeometry x="70" y="770" width="120" height="140" as="geometry" />
        </mxCell>
        <mxCell id="O3Rri53rWdAdvsoOidRE-4" value="通用服务组件&lt;br&gt;如：&lt;br&gt;网络层、数据层服务" style="rounded=0;whiteSpace=wrap;html=1;fillColor=#e1d5e7;strokeColor=#9673a6;" vertex="1" parent="1">
          <mxGeometry x="220" y="770" width="120" height="140" as="geometry" />
        </mxCell>
        <mxCell id="O3Rri53rWdAdvsoOidRE-5" value="常用工具组件:" style="rounded=0;whiteSpace=wrap;html=1;fillColor=#e1d5e7;strokeColor=#9673a6;" vertex="1" parent="1">
          <mxGeometry x="380" y="770" width="120" height="140" as="geometry" />
        </mxCell>
        <mxCell id="O3Rri53rWdAdvsoOidRE-6" value="壳工程" style="rounded=0;whiteSpace=wrap;html=1;fillColor=#f5f5f5;strokeColor=#666666;fontColor=#333333;" vertex="1" parent="1">
          <mxGeometry x="70" y="700" width="580" height="60" as="geometry" />
        </mxCell>
        <mxCell id="O3Rri53rWdAdvsoOidRE-7" value="路由组件/事件总线/中间件&lt;br&gt;组件" style="rounded=0;whiteSpace=wrap;html=1;fillColor=#cce5ff;strokeColor=#36393d;" vertex="1" parent="1">
          <mxGeometry x="670" y="700" width="190" height="60" as="geometry" />
        </mxCell>
        <mxCell id="O3Rri53rWdAdvsoOidRE-8" value="业务对中间件开放的接口组件" style="rounded=0;whiteSpace=wrap;html=1;fillColor=#cce5ff;strokeColor=#36393d;" vertex="1" parent="1">
          <mxGeometry x="530" y="770" width="330" height="70" as="geometry" />
        </mxCell>
        <mxCell id="O3Rri53rWdAdvsoOidRE-9" value="业务组件A" style="rounded=0;whiteSpace=wrap;html=1;fillColor=#cce5ff;strokeColor=#36393d;" vertex="1" parent="1">
          <mxGeometry x="530" y="850" width="100" height="60" as="geometry" />
        </mxCell>
        <mxCell id="O3Rri53rWdAdvsoOidRE-10" value="业务组件B" style="rounded=0;whiteSpace=wrap;html=1;fillColor=#cce5ff;strokeColor=#36393d;" vertex="1" parent="1">
          <mxGeometry x="650" y="850" width="110" height="60" as="geometry" />
        </mxCell>
        <mxCell id="O3Rri53rWdAdvsoOidRE-11" value="脚手架工具" style="rounded=0;whiteSpace=wrap;html=1;fillColor=#d5e8d4;strokeColor=#82b366;" vertex="1" parent="1">
          <mxGeometry x="980" y="700" width="90" height="280" as="geometry" />
        </mxCell>
        <mxCell id="O3Rri53rWdAdvsoOidRE-12" value="..." style="rounded=0;whiteSpace=wrap;html=1;fillColor=#cce5ff;strokeColor=#36393d;" vertex="1" parent="1">
          <mxGeometry x="770" y="850" width="90" height="60" as="geometry" />
        </mxCell>
        <mxCell id="O3Rri53rWdAdvsoOidRE-14" value="调试和监控组件" style="rounded=0;whiteSpace=wrap;html=1;fillColor=#ffe6cc;strokeColor=#d79b00;" vertex="1" parent="1">
          <mxGeometry x="870" y="700" width="90" height="210" as="geometry" />
        </mxCell>
        <mxCell id="O3Rri53rWdAdvsoOidRE-16" value="&amp;nbsp;iOS 组件化架构图" style="text;html=1;strokeColor=none;fillColor=none;align=center;verticalAlign=middle;whiteSpace=wrap;rounded=0;fontSize=19;fontStyle=1" vertex="1" parent="1">
          <mxGeometry x="450" y="565" width="260" height="20" as="geometry" />
        </mxCell>
      </root>
    </mxGraphModel>
  </diagram>
</mxfile>
